<?xml version="1.0" encoding="utf-8"?>
<!-- Generator: Adobe Illustrator 21.1.0, SVG Export Plug-In . SVG Version: 6.00 Build 0)  -->
<svg version="1.1" id="Layer_1" xmlns="http://www.w3.org/2000/svg" xmlns:xlink="http://www.w3.org/1999/xlink" x="0px" y="0px"
	 viewBox="0 0 100 50" style="enable-background:new 0 0 100 50;" xml:space="preserve">
<style type="text/css">
	.st0{fill:#FFFFFF;}
</style>
<path class="st0" d="M80.7,42.9c-4.8,0-8.8-4.8-8.8-10.8c0-5.9,4-10.7,8.8-10.7c4.8,0,8.9,4.8,8.9,10.7
	C89.6,38.1,85.6,42.9,80.7,42.9 M63.1,42.3c-9.3-1.3-19.3-26.2-28.9-32.7C40.8,5,46,9.4,49.1,13.3c5.9,6.9,11,18.5,17.5,26
	C67.2,41.1,64.3,42.7,63.1,42.3 M27.3,42.8c-4.9,0-8.9-4.8-8.9-10.7c0-6,4-10.8,8.9-10.8c4.8,0,8.8,4.8,8.8,10.8
	C36,38,32.1,42.8,27.3,42.8 M95,31.7c-0.7-10.3-10.6-12.1-15.1-11.8c-3.7,0.3-7.2,1.6-10.1,4.1c-5-6.7-8.9-16.6-19.3-19
	c-6.6-1.4-11.8,0.8-17.3,3.9c-4.8-2.5-10-5.3-18.4-3.5C12.3,5.7,6.2,8.9,5,11.9c0.3,0.2,1.1,0.4,1.2,0.1c2.1-3.9,7.9-5.3,11.9-3.9
	c4.3,1.5,10.6,9.5,11.8,11.7c-5.1-0.1-16.8,0.1-17.2,12.7c0.8,7.6,6.2,11.9,15.1,12.2c7.9-0.3,11.2-4.2,13.6-8.5
	c3.4,4,8.1,8.7,13.3,9.1c7.4,1,10.3-1.9,13.2-4.6c4.6,3.1,6.9,4.4,12.6,4.2C91.9,44.3,95.2,37.2,95,31.7"/>
</svg>
