<?xml version="1.0" encoding="utf-8"?>
<!-- Generator: Adobe Illustrator 21.1.0, SVG Export Plug-In . SVG Version: 6.00 Build 0)  -->
<svg version="1.1" id="Layer_1" xmlns="http://www.w3.org/2000/svg" xmlns:xlink="http://www.w3.org/1999/xlink" x="0px" y="0px"
	 viewBox="0 0 121.3 71.8" style="enable-background:new 0 0 121.3 71.8;" xml:space="preserve">
<style type="text/css">
	.st0{fill:#FFFFFF;}
	.st1{opacity:0.25;fill:#FFFFFF;enable-background:new    ;}
	.st2{opacity:0.5;fill:#FFFFFF;enable-background:new    ;}
	.st3{opacity:0.75;fill:#FFFFFF;enable-background:new    ;}
</style>
<title>dashboard</title>
<g>
	<path class="st0" d="M107.8,0H13.5c-1.5,0-2.7,1.2-2.7,2.7c0,0,0,0.1,0,0.1v56.6c0,1.5,1.2,2.8,2.7,2.8h94.3c1.5,0,2.8-1.3,2.8-2.8
		v0V2.8C110.6,1.3,109.4,0,107.8,0z M104.1,57.7H17.2V4.4h86.9V57.7z"/>
	<path class="st0" d="M117.7,69.9c-1.4,1.9-4.4,1.9-5.9,1.9H9.5c-1.5,0-3.6,0.3-5.9-1.9l-3.2-3.8c-0.8-0.9-0.8-1.9,2.8-1.9h114.9
		c3.5,0,3.5,1,2.8,1.9L117.7,69.9z"/>
</g>
<rect x="24.2" y="11.2" class="st1" width="18.2" height="10.2"/>
<rect x="43.5" y="11.2" class="st2" width="18.2" height="10.2"/>
<rect x="24.2" y="24.4" class="st1" width="18.2" height="10.2"/>
<rect x="43.6" y="24.4" class="st2" width="18.2" height="10.2"/>
<rect x="63" y="24.4" class="st3" width="18.2" height="10.2"/>
<rect x="24.2" y="38.8" class="st1" width="18.2" height="10.2"/>
</svg>
