<?xml version="1.0" encoding="utf-8"?>
<!-- Generator: Adobe Illustrator 21.1.0, SVG Export Plug-In . SVG Version: 6.00 Build 0)  -->
<svg version="1.1" id="Layer_1" xmlns="http://www.w3.org/2000/svg" xmlns:xlink="http://www.w3.org/1999/xlink" x="0px" y="0px"
	 viewBox="0 0 150 150" style="enable-background:new 0 0 150 150;" xml:space="preserve">
<style type="text/css">
	.st0{fill:#FFFFFF;}
</style>
<g>
	<g>
		<path class="st0" d="M23.9,109.8l-6-11.5v9.2c0,0.8,0.1,1.4,0.3,1.6c0.3,0.3,0.7,0.4,1.3,0.4H20v0.4h-5.4v-0.4h0.5
			c0.7,0,1.1-0.2,1.4-0.5c0.2-0.2,0.3-0.7,0.3-1.5v-8.9c0-0.6-0.1-1-0.2-1.3c-0.1-0.2-0.3-0.4-0.6-0.5c-0.3-0.1-0.7-0.2-1.4-0.2
			v-0.4H19l5.6,10.7l5.5-10.7h4.4v0.4H34c-0.7,0-1.1,0.2-1.4,0.5c-0.2,0.2-0.2,0.7-0.2,1.5v8.9c0,0.8,0.1,1.4,0.3,1.6
			c0.3,0.3,0.7,0.4,1.3,0.4h0.5v0.4H28v-0.4h0.5c0.7,0,1.1-0.2,1.4-0.5c0.2-0.2,0.2-0.7,0.2-1.5v-9.2l-6,11.5H23.9L23.9,109.8z"/>
		<path class="st0" d="M39.4,100.4v7.4c0,0.6,0,1,0.1,1.2s0.2,0.3,0.4,0.4c0.2,0.1,0.5,0.1,1,0.1v0.4h-5.1v-0.4c0.5,0,0.9,0,1-0.1
			c0.2-0.1,0.3-0.2,0.4-0.4c0.1-0.2,0.2-0.6,0.2-1.2v-3.6c0-1,0-1.7-0.1-1.9c-0.1-0.2-0.1-0.4-0.3-0.5s-0.3-0.1-0.5-0.1
			s-0.5,0.1-0.8,0.2l-0.2-0.4l3.1-1.1H39.4L39.4,100.4z M38.4,95.6c0.3,0,0.6,0.1,0.8,0.3c0.2,0.2,0.3,0.4,0.3,0.7s-0.1,0.5-0.3,0.7
			c-0.2,0.2-0.5,0.3-0.8,0.3c-0.3,0-0.6-0.1-0.8-0.3c-0.2-0.2-0.3-0.4-0.3-0.7s0.1-0.5,0.3-0.7C37.8,95.7,38.1,95.6,38.4,95.6z"/>
		<path class="st0" d="M48.2,108.6c-1.1,0.7-1.7,1.2-2,1.3c-0.4,0.2-0.8,0.3-1.3,0.3c-0.7,0-1.3-0.2-1.8-0.7s-0.7-1-0.7-1.7
			c0-0.5,0.1-0.8,0.3-1.2c0.3-0.5,0.9-0.9,1.6-1.3c0.7-0.4,2.1-0.9,3.8-1.5v-0.4c0-0.9-0.2-1.6-0.5-1.9s-0.8-0.5-1.4-0.5
			c-0.5,0-0.9,0.1-1.1,0.3c-0.3,0.2-0.4,0.5-0.4,0.8v0.6c0,0.3-0.1,0.5-0.3,0.7s-0.4,0.3-0.7,0.3s-0.5-0.1-0.7-0.3
			c-0.2-0.2-0.3-0.4-0.3-0.7c0-0.6,0.3-1.1,1-1.6s1.6-0.7,2.8-0.7c0.9,0,1.7,0.1,2.3,0.4c0.4,0.2,0.8,0.5,1,1
			c0.1,0.3,0.2,0.9,0.2,1.8v3.1c0,0.9,0,1.4,0.1,1.6c0,0.2,0.1,0.3,0.2,0.4c0.1,0.1,0.2,0.1,0.3,0.1s0.2,0,0.3-0.1
			c0.2-0.1,0.5-0.3,0.9-0.7v0.6c-0.8,1-1.7,1.5-2.4,1.5c-0.4,0-0.7-0.1-0.9-0.3C48.3,109.6,48.2,109.2,48.2,108.6z M48.2,108v-3.5
			c-1.1,0.4-1.9,0.7-2.2,0.9c-0.6,0.3-1,0.6-1.3,0.9s-0.4,0.7-0.4,1.1c0,0.5,0.2,0.9,0.5,1.2c0.3,0.3,0.7,0.5,1.1,0.5
			C46.5,109,47.2,108.6,48.2,108z"/>
		<path class="st0" d="M55.7,102.4c0.8-0.7,1.2-1.1,1.3-1.2c0.3-0.3,0.7-0.5,1.1-0.6s0.8-0.2,1.2-0.2c0.7,0,1.2,0.2,1.7,0.5
			s0.8,0.8,0.9,1.5c0.8-0.8,1.4-1.3,2-1.6c0.5-0.3,1.1-0.4,1.7-0.4c0.6,0,1,0.1,1.5,0.4c0.4,0.3,0.8,0.7,1,1.2
			c0.2,0.4,0.3,1,0.3,1.8v4c0,0.6,0,1,0.1,1.2c0.1,0.1,0.2,0.3,0.4,0.4s0.5,0.2,1,0.2v0.4h-5.1v-0.4H65c0.4,0,0.8-0.1,1-0.2
			s0.3-0.3,0.4-0.5c0-0.1,0-0.4,0-1v-4c0-0.8-0.1-1.3-0.3-1.6c-0.3-0.4-0.8-0.6-1.4-0.6c-0.4,0-0.8,0.1-1.2,0.3
			c-0.4,0.2-0.9,0.5-1.5,1v0.1v0.4v4.4c0,0.6,0,1,0.1,1.2s0.2,0.3,0.4,0.4s0.6,0.2,1.1,0.2v0.3h-5.3v-0.4c0.6,0,1-0.1,1.2-0.2
			s0.4-0.3,0.4-0.5c0-0.1,0.1-0.4,0.1-1v-4c0-0.8-0.1-1.3-0.4-1.6c-0.3-0.4-0.8-0.6-1.4-0.6c-0.4,0-0.8,0.1-1.2,0.3
			c-0.6,0.3-1.1,0.6-1.5,1v5c0,0.6,0,1,0.1,1.2s0.2,0.3,0.4,0.4s0.6,0.1,1.1,0.1v0.4h-5.2v-0.4c0.5,0,0.8,0,1-0.1s0.3-0.2,0.4-0.4
			s0.1-0.6,0.1-1.2v-3.5c0-1,0-1.7-0.1-2c-0.1-0.2-0.1-0.4-0.2-0.5s-0.3,0-0.5,0s-0.5,0.1-0.8,0.2l-0.2-0.4l3.1-1.1h0.5L55.7,102.4
			L55.7,102.4z"/>
		<path class="st0" d="M74.3,100.4v7.4c0,0.6,0,1,0.1,1.2c0.1,0.2,0.2,0.3,0.4,0.4c0.2,0.1,0.5,0.1,1,0.1v0.4h-5.1v-0.4
			c0.5,0,0.9,0,1-0.1c0.2-0.1,0.3-0.2,0.4-0.4c0.1-0.2,0.2-0.6,0.2-1.2v-3.6c0-1,0-1.7-0.1-1.9c-0.1-0.2-0.1-0.4-0.3-0.5
			c-0.1-0.1-0.3-0.1-0.5-0.1c-0.2,0-0.5,0.1-0.8,0.2l-0.2-0.4l3.1-1.1H74.3L74.3,100.4z M73.4,95.6c0.3,0,0.6,0.1,0.8,0.3
			c0.2,0.2,0.3,0.4,0.3,0.7s-0.1,0.5-0.3,0.7c-0.2,0.2-0.5,0.3-0.8,0.3s-0.6-0.1-0.8-0.3c-0.2-0.2-0.3-0.4-0.3-0.7s0.1-0.5,0.3-0.7
			C72.8,95.7,73.1,95.6,73.4,95.6z"/>
		<path class="st0" d="M82.7,109.8v-0.4h0.6c0.7,0,1.1-0.2,1.4-0.6c0.2-0.2,0.2-0.7,0.2-1.5v-8.8c0-0.9-0.1-1.4-0.3-1.6
			c-0.3-0.3-0.7-0.4-1.3-0.4h-0.6v-0.4H89c2.3,0,4.1,0.2,5.3,0.7c1.2,0.5,2.2,1.2,2.9,2.3c0.7,1.1,1.1,2.3,1.1,3.8
			c0,1.9-0.7,3.5-2,4.8c-1.5,1.4-3.7,2.1-6.7,2.1H82.7L82.7,109.8z M87.1,109c1,0.2,1.8,0.3,2.4,0.3c1.8,0,3.2-0.5,4.4-1.6
			c1.2-1.1,1.7-2.6,1.7-4.5s-0.6-3.4-1.7-4.5c-1.2-1.1-2.7-1.6-4.5-1.6c-0.7,0-1.5,0.1-2.3,0.3V109L87.1,109z"/>
		<path class="st0" d="M105.8,108.6c-1.1,0.7-1.7,1.2-2,1.3c-0.4,0.2-0.8,0.3-1.3,0.3c-0.7,0-1.3-0.2-1.8-0.7
			c-0.5-0.4-0.7-1-0.7-1.7c0-0.5,0.1-0.8,0.3-1.2c0.3-0.5,0.9-0.9,1.6-1.3s2.1-0.9,3.8-1.5v-0.4c0-0.9-0.2-1.6-0.5-1.9
			s-0.8-0.5-1.4-0.5c-0.5,0-0.9,0.1-1.1,0.3c-0.3,0.2-0.4,0.5-0.4,0.8v0.6c0,0.3-0.1,0.5-0.3,0.7c-0.2,0.2-0.4,0.3-0.7,0.3
			c-0.3,0-0.5-0.1-0.7-0.3c-0.2-0.2-0.3-0.4-0.3-0.7c0-0.6,0.3-1.1,1-1.6s1.6-0.7,2.8-0.7c0.9,0,1.7,0.1,2.3,0.4
			c0.4,0.2,0.8,0.5,1,1c0.1,0.3,0.2,0.9,0.2,1.8v3.1c0,0.9,0,1.4,0.1,1.6c0,0.2,0.1,0.3,0.2,0.4s0.2,0.1,0.3,0.1
			c0.1,0,0.2,0,0.3-0.1c0.2-0.1,0.5-0.3,0.9-0.7v0.6c-0.8,1-1.7,1.5-2.4,1.5c-0.4,0-0.7-0.1-0.9-0.3
			C105.9,109.6,105.8,109.2,105.8,108.6z M105.8,108v-3.5c-1.1,0.4-1.9,0.7-2.2,0.9c-0.6,0.3-1,0.6-1.3,0.9s-0.4,0.7-0.4,1.1
			c0,0.5,0.2,0.9,0.5,1.2s0.7,0.5,1.1,0.5C104.1,109,104.8,108.6,105.8,108z"/>
		<path class="st0" d="M117.6,108.8c-0.5,0.5-1,0.8-1.5,1s-1,0.3-1.6,0.3c-1.1,0-2.1-0.4-3-1.3c-0.9-0.8-1.3-1.9-1.3-3.3
			c0-1.3,0.5-2.5,1.4-3.6s2.2-1.7,3.6-1.7c0.9,0,1.7,0.3,2.3,0.8v-1.7c0-1.1,0-1.7-0.1-1.9c-0.1-0.2-0.1-0.4-0.3-0.5
			c-0.1-0.1-0.3-0.1-0.5-0.1s-0.5,0.1-0.8,0.2l-0.1-0.4l3.1-1.1h0.5v10.7c0,1.1,0,1.7,0.1,2c0.1,0.2,0.1,0.4,0.3,0.5
			c0.1,0.1,0.3,0.1,0.4,0.1c0.2,0,0.5-0.1,0.8-0.2l0.1,0.4l-3.1,1.1h-0.5L117.6,108.8L117.6,108.8z M117.6,108.2v-4.8
			c0-0.5-0.2-0.9-0.4-1.3s-0.5-0.7-0.9-0.9c-0.4-0.2-0.7-0.3-1.1-0.3c-0.7,0-1.3,0.3-1.8,0.8c-0.7,0.7-1,1.7-1,3.1s0.3,2.4,1,3.1
			s1.4,1.1,2.2,1.1C116.3,109.1,116.9,108.8,117.6,108.2z"/>
		<path class="st0" d="M123.6,104.2c0,1.4,0.4,2.5,1.1,3.2c0.8,0.8,1.6,1.2,2.7,1.2c0.7,0,1.3-0.2,1.8-0.5s0.9-0.9,1.3-1.7l0.4,0.2
			c-0.2,0.9-0.6,1.8-1.4,2.5c-0.8,0.8-1.7,1.1-2.9,1.1c-1.3,0-2.3-0.4-3.2-1.3c-0.9-0.9-1.3-2-1.3-3.5c0-1.6,0.5-2.8,1.4-3.7
			c0.9-0.9,2.1-1.3,3.4-1.3c1.2,0,2.1,0.3,2.9,1s1.1,1.6,1.1,2.7L123.6,104.2L123.6,104.2z M123.6,103.6h4.8c0-0.6-0.1-1-0.2-1.3
			c-0.2-0.4-0.5-0.7-0.8-0.9c-0.4-0.2-0.8-0.3-1.2-0.3c-0.6,0-1.2,0.2-1.7,0.7C124,102.2,123.7,102.8,123.6,103.6z"/>
		<path class="st0" d="M50.7,120.8l0.4,4.7h-0.4c-0.5-1.4-1.1-2.4-2-3s-1.9-0.9-3.1-0.9c-1,0-2,0.2-2.8,0.7c-0.8,0.5-1.5,1.2-2,2.2
			s-0.7,2.3-0.7,3.8c0,1.2,0.2,2.3,0.7,3.2c0.4,0.9,1.1,1.6,2,2.1c0.9,0.5,1.9,0.7,3.1,0.7c1,0,1.9-0.2,2.7-0.6
			c0.8-0.4,1.6-1.1,2.5-2.3l0.4,0.2c-0.8,1.2-1.7,2.1-2.7,2.7c-1,0.6-2.3,0.8-3.7,0.8c-2.6,0-4.5-0.8-5.9-2.5
			c-1-1.3-1.6-2.7-1.6-4.4c0-1.4,0.3-2.6,1-3.8c0.7-1.1,1.6-2,2.9-2.7c1.2-0.6,2.5-0.9,4-0.9c1.1,0,2.2,0.2,3.3,0.7
			c0.3,0.1,0.5,0.2,0.7,0.2s0.4-0.1,0.5-0.2c0.2-0.2,0.3-0.4,0.4-0.8L50.7,120.8L50.7,120.8z"/>
		<path class="st0" d="M58,125.2c1.6,0,2.8,0.5,3.8,1.6c0.8,0.9,1.2,2,1.2,3.1c0,0.8-0.2,1.7-0.7,2.5c-0.4,0.8-1.1,1.5-1.8,1.9
			c-0.8,0.4-1.7,0.6-2.6,0.6c-1.6,0-2.8-0.6-3.7-1.7c-0.8-0.9-1.2-2-1.2-3.2c0-0.8,0.2-1.7,0.7-2.5s1.1-1.5,1.9-1.9
			C56.3,125.3,57.2,125.2,58,125.2z M57.7,125.8c-0.4,0-0.8,0.1-1.2,0.3c-0.4,0.2-0.7,0.6-1,1.1s-0.4,1.2-0.4,2
			c0,1.3,0.3,2.5,0.9,3.5s1.4,1.5,2.4,1.5c0.7,0,1.3-0.3,1.8-0.8s0.7-1.5,0.7-2.8c0-1.6-0.4-2.9-1.2-3.9
			C59.2,126.2,58.5,125.8,57.7,125.8z"/>
		<path class="st0" d="M68.2,120.3v12.3c0,0.6,0,1,0.1,1.2c0.1,0.2,0.2,0.3,0.4,0.4c0.2,0.1,0.6,0.1,1.1,0.1v0.4h-5.1v-0.4
			c0.5,0,0.8,0,1-0.1c0.2-0.1,0.3-0.2,0.4-0.4c0.1-0.2,0.1-0.6,0.1-1.2v-8.4c0-1,0-1.7-0.1-1.9c-0.1-0.2-0.1-0.4-0.3-0.5
			c-0.1-0.1-0.3-0.1-0.5-0.1s-0.4,0.1-0.7,0.2l-0.2-0.4l3.1-1.1L68.2,120.3L68.2,120.3z"/>
		<path class="st0" d="M74.6,120.3v12.3c0,0.6,0,1,0.1,1.2s0.2,0.3,0.4,0.4c0.2,0.1,0.6,0.1,1.1,0.1v0.4h-5.1v-0.4
			c0.5,0,0.8,0,1-0.1c0.2-0.1,0.3-0.2,0.4-0.4s0.1-0.6,0.1-1.2v-8.4c0-1,0-1.7-0.1-1.9s-0.1-0.4-0.3-0.5c-0.1-0.1-0.3-0.1-0.5-0.1
			c-0.2,0-0.4,0.1-0.7,0.2l-0.2-0.4l3.1-1.1L74.6,120.3L74.6,120.3z"/>
		<path class="st0" d="M79.3,129c0,1.4,0.4,2.5,1.1,3.2c0.8,0.8,1.6,1.2,2.7,1.2c0.7,0,1.3-0.2,1.8-0.5s0.9-0.9,1.3-1.7l0.4,0.2
			c-0.2,0.9-0.6,1.8-1.4,2.5c-0.8,0.8-1.7,1.1-2.9,1.1c-1.3,0-2.3-0.4-3.2-1.3c-0.9-0.9-1.3-2-1.3-3.5c0-1.6,0.5-2.8,1.4-3.7
			s2.1-1.3,3.4-1.3c1.2,0,2.1,0.3,2.9,1s1.1,1.6,1.1,2.7L79.3,129L79.3,129z M79.3,128.3h4.8c0-0.6-0.1-1-0.2-1.3
			c-0.2-0.4-0.5-0.7-0.8-0.9c-0.4-0.2-0.8-0.3-1.2-0.3c-0.6,0-1.2,0.2-1.7,0.7C79.7,127,79.4,127.6,79.3,128.3z"/>
		<path class="st0" d="M90.7,131.3c-0.6-0.3-1.1-0.7-1.5-1.2c-0.3-0.5-0.5-1-0.5-1.6c0-0.9,0.4-1.7,1.2-2.4c0.8-0.7,1.8-1,3-1
			c1,0,1.9,0.2,2.6,0.6h2.2c0.3,0,0.5,0,0.6,0s0.1,0,0.1,0.1s0.1,0.2,0.1,0.3c0,0.2,0,0.3-0.1,0.4l-0.1,0.1c-0.1,0-0.2,0-0.6,0h-1.4
			c0.4,0.5,0.6,1.1,0.6,1.9c0,0.9-0.4,1.6-1.1,2.2c-0.7,0.6-1.7,0.9-3,0.9c-0.5,0-1-0.1-1.6-0.2c-0.3,0.3-0.6,0.5-0.7,0.7
			s-0.2,0.4-0.2,0.5s0.1,0.2,0.2,0.3s0.4,0.2,0.7,0.2c0.2,0,0.7,0.1,1.6,0.1c1.6,0,2.6,0.1,3,0.1c0.7,0.1,1.3,0.3,1.7,0.7
			c0.4,0.4,0.6,0.8,0.6,1.4c0,0.8-0.4,1.5-1.2,2.1c-1.2,1-2.7,1.5-4.6,1.5c-1.5,0-2.7-0.3-3.7-0.9c-0.6-0.3-0.9-0.7-0.9-1.1
			c0-0.2,0-0.3,0.1-0.5s0.4-0.6,0.8-1c0.1-0.1,0.4-0.4,1.2-1.1c-0.4-0.2-0.7-0.4-0.8-0.6c-0.2-0.2-0.2-0.4-0.2-0.6
			c0-0.2,0.1-0.5,0.3-0.8C89.4,132.3,89.9,132,90.7,131.3z M90.6,134.8c-0.4,0.3-0.6,0.7-0.8,1c-0.2,0.3-0.3,0.6-0.3,0.8
			c0,0.3,0.2,0.6,0.7,0.8c0.8,0.4,1.9,0.6,3.3,0.6s2.4-0.2,3-0.6s1-0.9,1-1.4c0-0.4-0.2-0.6-0.6-0.7c-0.4-0.1-1.2-0.2-2.3-0.3
			C92.8,135,91.5,134.8,90.6,134.8z M92.6,125.7c-0.6,0-1,0.2-1.4,0.6s-0.6,1-0.6,1.8c0,1.1,0.3,1.9,0.8,2.5
			c0.4,0.4,0.9,0.7,1.5,0.7s1.1-0.2,1.4-0.6c0.4-0.4,0.6-1,0.6-1.8c0-1.1-0.3-1.9-0.8-2.5C93.8,126,93.3,125.7,92.6,125.7z"/>
		<path class="st0" d="M101.3,129c0,1.4,0.4,2.5,1.1,3.2c0.8,0.8,1.6,1.2,2.7,1.2c0.7,0,1.3-0.2,1.8-0.5s0.9-0.9,1.3-1.7l0.4,0.2
			c-0.2,0.9-0.6,1.8-1.4,2.5c-0.8,0.8-1.7,1.1-2.9,1.1c-1.3,0-2.3-0.4-3.2-1.3c-0.9-0.9-1.3-2-1.3-3.5c0-1.6,0.5-2.8,1.4-3.7
			s2.1-1.3,3.4-1.3c1.2,0,2.1,0.3,2.9,1s1.1,1.6,1.1,2.7L101.3,129L101.3,129z M101.3,128.3h4.8c0-0.6-0.1-1-0.2-1.3
			c-0.2-0.4-0.5-0.7-0.8-0.9c-0.4-0.2-0.8-0.3-1.2-0.3c-0.6,0-1.2,0.2-1.7,0.7C101.7,127,101.4,127.6,101.3,128.3z"/>
	</g>
	<path class="st0" d="M16,14.2v76.6h40.3l38.3-73.5v73.5c0,0,39.3-3.1,38.6-41.5s-39.3-35-39.3-35l-39.6-0.1l-0.7,73.6L16,14.2z"/>
</g>
</svg>
